<?xml version="1.0" encoding="UTF-8" standalone="no"?>
<!-- Generator: Adobe Illustrator 16.0.0, SVG Export Plug-In . SVG Version: 6.00 Build 0)  -->

<svg
   version="1.1"
   id="Layer_1"
   x="0px"
   y="0px"
   width="280px"
   height="280px"
   viewBox="0 0 280 280"
   enable-background="new 0 0 280 280"
   xml:space="preserve"
   sodipodi:docname="weather.svg"
   inkscape:version="1.2.2 (b0a8486541, 2022-12-01)"
   xmlns:inkscape="http://www.inkscape.org/namespaces/inkscape"
   xmlns:sodipodi="http://sodipodi.sourceforge.net/DTD/sodipodi-0.dtd"
   xmlns="http://www.w3.org/2000/svg"
   xmlns:svg="http://www.w3.org/2000/svg"><defs
   id="defs55" /><sodipodi:namedview
   id="namedview53"
   pagecolor="#ffffff"
   bordercolor="#000000"
   borderopacity="0.25"
   inkscape:showpageshadow="2"
   inkscape:pageopacity="0.0"
   inkscape:pagecheckerboard="0"
   inkscape:deskcolor="#d1d1d1"
   showgrid="false"
   inkscape:zoom="1.2321429"
   inkscape:cx="91.710145"
   inkscape:cy="76.289855"
   inkscape:window-width="1600"
   inkscape:window-height="826"
   inkscape:window-x="0"
   inkscape:window-y="0"
   inkscape:window-maximized="1"
   inkscape:current-layer="g50" />

<g
   id="g50">
	
	<path
   fill-rule="evenodd"
   clip-rule="evenodd"
   fill="#FCFDFE"
   d="M111.927,191.609c1.256-0.857,2.392-1.889,3.927-2.346   c0.881-0.262,1.827-0.576,2.611,0.115c0.825,0.727,0.374,1.594,0.029,2.357c-0.391,0.867-0.916,1.684-1.384,2.523   c-0.15,0.27-0.304,0.566-0.05,0.82c0.25,0.252,0.622,0.18,0.916,0.072c1.271-0.469,2.355-1.213,3.398-2.012   c4.11-3.139,8.723-4.744,14.143-3.889c0.213,0.035,0.434,0.033,0.646,0.07c2.248,0.408,2.423,0.717,1.512,2.625   c-2.082,4.357-4.188,8.707-6.214,13.086c-0.37,0.799-1.25,1.928-0.151,2.547c0.987,0.559,1.854-0.488,2.56-1.139   c2.291-2.105,3.839-4.668,5.175-7.34c1.418-2.838,2.816-5.688,4.127-8.568c0.402-0.883,0.919-1.238,1.936-1.154   c0.808,0.066,1.635,0.078,2.439,0c1.525-0.146,1.631,0.398,1,1.473c-0.189,0.322-0.475,0.68-0.285,1.252   c0.754-0.547,1.43-1.07,2.145-1.543c0.882-0.586,1.844-1.039,2.902-1.303c3.303-0.826,4.678,0.033,5.025,3.289   c1.995-1.561,3.994-2.949,6.578-3.412c3.475-0.621,5.308,1.018,4.444,4.154c-0.906,3.293-2.835,6.207-4.302,9.291   c-0.518,1.09-1.08,2.164-1.574,3.264c-0.259,0.576-0.719,1.277,0.026,1.758c0.687,0.443,1.388-0.043,1.915-0.432   c2.194-1.615,3.863-3.627,4.84-6.043c1.213-2.998,2.582-5.914,4.971-8.293c2.842-2.83,6.299-4.346,10.602-3.643   c2.381,0.389,3.796,1.754,4.403,3.881c0.615,2.152,2.223,2.693,4.327,1.451c1.427-0.842,2.308-2.115,2.86-3.531   c0.515-1.318,1.356-1.844,2.896-1.682c1.213,0.129,2.455,0.025,3.94,0.025c-1.128,2.27-2.155,4.328-3.175,6.389   c-1.631,3.295-3.285,6.582-4.861,9.898c-0.292,0.615-0.941,1.465-0.01,2.01c0.795,0.465,1.568-0.115,2.19-0.586   c2.48-1.879,4.116-4.346,5.451-6.963c1.626-3.186,3.12-6.43,4.613-9.672c0.369-0.801,0.839-1.162,1.817-1.094   c1.133,0.078,2.281,0.076,3.416,0.002c1.162-0.076,1.256,0.268,0.825,1.16c-2.228,4.625-4.411,9.268-6.609,13.904   c-0.259,0.545-0.563,1.078-0.742,1.646c-0.166,0.529-0.714,1.178,0.046,1.615c0.652,0.375,1.244-0.088,1.764-0.439   c1.558-1.057,2.588-2.525,3.648-3.967c2.684-3.648,4.374-7.744,6.2-11.768c0.674-1.484,1.452-2.275,3.304-2.002   c0.996,0.146,2.039,0.025,3.086,0.025c-0.012,0.83-0.518,1.381-0.732,2.027c0.672,0.338,0.994-0.184,1.396-0.469   c1.393-0.986,2.904-1.723,4.668-1.971c3.051-0.432,4.952,1.414,4.271,4.172c-0.518,2.1-1.664,3.969-2.633,5.902   c-1.151,2.297-2.306,4.594-3.424,6.902c-0.238,0.49-0.494,1.141,0.016,1.535c0.575,0.447,1.236,0.059,1.786-0.256   c1.122-0.645,1.958-1.559,2.766-2.5c3.362-3.912,5.222-8.549,7.469-12.998c0.325-0.646,0.05-0.791-0.593-0.771   c-0.537,0.016-1.076,0.002-1.673,0.002c0.135-1.227,0.745-1.766,2.014-1.576c1.013,0.152,1.547-0.242,1.927-1.129   c0.811-1.891,1.797-3.717,2.632-5.598c0.312-0.701,0.697-1.004,1.547-0.971c1.515,0.061,3.034,0.018,4.8,0.018   c-0.941,2.016-1.82,3.904-2.706,5.791c-0.88,1.875-0.882,1.865,1.257,1.896c0.471,0.006,0.973-0.133,1.408,0.158   c-0.02,1.176-0.726,1.596-1.898,1.402c-1.91-0.313-2.863,0.412-3.553,2.082c-1.854,4.494-4.398,8.729-6.092,13.287   c-0.33,0.887-0.586,1.816-0.698,2.744c-0.214,1.756,0.881,2.568,2.78,2.242c1.416-0.244,2.426-1.063,3.428-1.895   c1.131-0.938,2.049-2.051,2.947-3.174c0.242-0.303,0.487-0.563,0.906-0.199c0.314,0.271,0.685,0.482,0.283,0.969   c-2.531,3.08-5.056,6.146-9.676,6.707c-3.871,0.469-6.406-1.852-5.889-5.42c0.083-0.568,0.17-1.135,0.314-2.09   c-1.461,1.293-2.518,2.42-3.873,3.234c-1.374,0.826-2.787,1.518-4.5,1.512c-2.395-0.008-3.725-1.365-3.395-3.541   c0.219-1.436,0.746-2.787,1.42-4.094c1.523-2.959,3.068-5.91,4.537-8.891c0.376-0.766,1.174-1.799,0.181-2.436   c-0.948-0.609-1.962,0.182-2.755,0.775c-1.451,1.084-2.441,2.523-3.334,4.004c-2.436,4.043-4.242,8.357-6.271,12.572   c-0.5,1.041-1.09,1.416-2.295,1.328c-1.346-0.1-2.707-0.023-4.119-0.023c-0.043-0.785,0.545-1.322,0.673-1.982   c0.134-0.199,0.315-0.406,0.086-0.627c-0.023-0.021-0.299,0.178-0.456,0.273c-1.276,1.076-2.533,2.17-4.271,2.627   c-3.029,0.797-4.621-0.27-4.642-3.133c-0.001-0.295,0-0.594,0-0.998c-0.782,0.223-1.104,0.836-1.577,1.252   c-1.545,1.359-3.205,2.535-5.334,3.004c-2.632,0.58-4.531-0.813-4.509-3.279c0.011-1.215,0.373-2.352,0.917-3.445   c1.299-2.613,2.606-5.225,3.975-7.967c-1.34,0.064-2.561,0.35-3.84,0.121c-0.646-0.117-0.551,0.801-0.656,1.264   c-0.758,3.313-2.25,6.316-4.554,8.953c-2.338,2.678-5.323,4.367-9.155,4.496c-4.244,0.143-6.478-1.654-6.969-5.611   c-1.032,0.471-1.496,1.389-2.201,2.064c-1.671,1.6-3.406,3.063-5.959,3.352c-3.254,0.371-4.847-1.211-4.176-4.123   c0.238-1.033,0.681-1.984,1.16-2.926c1.533-3.01,3.092-6.01,4.617-9.023c0.293-0.58,0.555-1.195,0.684-1.818   c0.191-0.92-0.295-1.305-1.309-1.096c-0.938,0.193-1.662,0.701-2.322,1.305c-1.84,1.68-3.003,3.754-4.045,5.889   c-1.678,3.439-3.332,6.889-4.943,10.354c-0.369,0.793-0.822,1.152-1.811,1.098c-1.51-0.084-3.029-0.021-4.533-0.021   c-0.154-0.637,0.221-1.041,0.428-1.482c2.326-4.963,4.678-9.918,6.977-14.893c0.309-0.668,1.121-1.529,0.176-2.139   c-0.902-0.58-1.748,0.191-2.435,0.701c-2.239,1.668-3.722,3.865-4.892,6.236c-1.717,3.477-3.391,6.973-5.031,10.482   c-0.369,0.791-0.818,1.152-1.806,1.094c-1.458-0.086-2.926-0.021-4.562-0.021c0.358-0.893,0.679-1.691,1-2.488   c-0.065-0.055-0.131-0.109-0.197-0.164c-0.36,0.299-0.728,0.59-1.078,0.896c-0.829,0.729-1.733,1.354-2.807,1.746   c-3.125,1.143-4.982-0.025-5.552-3.578c-1.042,0.84-2.003,1.688-3.049,2.438c-1.352,0.969-2.863,1.566-4.652,1.477   c-2.351-0.117-3.786-1.402-3.921-3.576c-0.207-3.295,1.348-6.066,3.085-8.785c0.375-0.588,0.794-1.152,1.361-1.971   c-1.766,0.531-3.334,1.525-4.839,0.52c-1.764-1.18-0.179-2.594,0.067-4.07c-0.983,0.16-1.433,0.789-1.907,1.318   c-1.387,1.545-2.356,3.322-3.232,5.143c-1.617,3.355-3.248,6.705-4.818,10.078c-0.341,0.734-0.723,1.092-1.658,1.039   c-1.452-0.084-2.914-0.021-4.563-0.021c0.449-1.037,0.836-1.932,1.329-3.07c-1.204,0.871-2.126,1.611-3.129,2.244   c-1.029,0.65-2.151,1.137-3.46,1.152c-2.201,0.025-3.164-0.777-3.305-2.813c-0.016-0.229-0.033-0.457-0.062-0.852   c-0.901,0.74-1.631,1.383-2.407,1.973c-0.882,0.67-1.876,1.164-2.987,1.467c-3.921,1.07-6.619-0.953-6.22-4.678   c0.749-6.99,8.26-15.027,15.678-16.746c2.688-0.623,5.374-0.449,8.047,0.133c1.171,0.256,1.438,0.768,0.919,1.82   c-2.112,4.293-4.149,8.617-6.213,12.93c-0.174,0.363-0.398,0.715-0.499,1.096c-0.216,0.816-1.094,1.857-0.023,2.418   c0.927,0.486,1.792-0.451,2.447-1.072c2.479-2.355,4.159-5.191,5.62-8.139c1.274-2.572,2.557-5.146,3.699-7.768   c0.507-1.166,1.232-1.629,2.547-1.451c0.425,0.059,0.867,0.01,1.301,0.01c2.141,0,2.141,0,1.463,1.834   c-0.148,0.221-0.369,0.449-0.062,0.684C111.529,191.934,111.779,191.715,111.927,191.609z M174.551,207.227   c0.017,0.824,0.063,1.578,0.833,1.93c0.768,0.352,1.584,0.197,2.32-0.225c0.994-0.568,1.673-1.406,2.293-2.281   c2.436-3.436,4.188-7.148,5.328-11.104c0.247-0.859,0.448-1.742,0.535-2.625c0.066-0.684-0.002-1.463-0.797-1.814   c-0.731-0.324-1.522-0.176-2.138,0.299c-0.615,0.477-1.202,1.006-1.694,1.59c-2.474,2.934-4.156,6.246-5.471,9.732   C175.194,204.23,174.733,205.752,174.551,207.227z M132.37,190.943c-2.505,0.018-4.278,1.02-5.76,2.414   c-3.462,3.258-5.788,7.141-7.163,11.502c-0.119,0.377-0.216,0.771-0.245,1.162c-0.119,1.598,0.804,2.217,2.42,1.59   c1.235-0.477,2.106-1.373,2.887-2.34C127.991,200.961,129.751,195.875,132.37,190.943z M83.967,207.789   c0.866,0.018,1.564-0.467,2.224-0.986c1.079-0.85,1.917-1.891,2.677-2.982c2.635-3.785,4.301-8,6.355-12.043   c0.51-1.002-0.218-0.855-0.822-0.748c-2.299,0.408-4.041,1.668-5.493,3.246c-2.571,2.795-4.499,5.951-5.818,9.4   c-0.336,0.881-0.538,1.822-0.653,2.752C82.326,207.32,82.849,207.834,83.967,207.789z"
   id="path6" />
	<path
   fill-rule="evenodd"
   clip-rule="evenodd"
   fill="#FCFDFE"
   d="M178.992,141.846c0.038-0.393,0.101-0.633,0.075-0.864   c-0.105-1.011,0.307-1.029,1.196-0.66c1.778,0.739,3.167,1.897,4.446,3.194c5.971,6.043,11.644,12.318,17.234,18.658   c0.473,0.537,0.953,1.07,1.43,1.604c-0.422,0.471-0.946,0.285-1.395,0.279c-3.906-0.051-7.811-0.164-11.717-0.174   c-1.193-0.002-1.864-0.426-2.41-1.365c-2.254-3.881-5.197-7.316-8.334-10.619c-0.314-0.332-0.577-1.002-1.253-0.639   c-0.63,0.338-0.272,0.904-0.099,1.344c0.846,2.143,1.726,4.273,2.592,6.41c0.113,0.279,0.225,0.559,0.326,0.842   c1.017,2.838,0.396,3.477-2.791,3.023c-3.263-0.463-6.531-0.895-9.75-1.582c-0.996-0.213-1.246,0.025-1.049,0.951   c0.381,1.809,0.336,1.816-1.737,1.818c-2.659,0.002-5.32-0.068-7.976,0.027c-1.381,0.051-1.75-0.445-1.842-1.613   c-0.193-2.438,0.422-4.73,1.199-7.01c0.857-2.51,1.875-4.973,3.152-7.322c0.582-1.068,0.238-1.363-0.801-1.766   c-3.291-1.271-6.727-1.406-10.213-1.318c-1.074,0.027-2.149,0.004-3.321,0.004c0.226-1.252,0.88-2.234,1.356-3.264   c1.644-3.559,3.341-7.098,5.029-10.641c0.49-1.028,0.808-2.021-0.596-2.664c-0.635-0.29-0.307-0.638-0.147-0.975   c2.21-4.685,4.446-9.358,6.626-14.056c0.354-0.762,0.656-0.678,1.279-0.284c1.455,0.919,2.625,2.038,3.502,3.458   c4.93,7.988,9.889,15.962,14.852,23.934C178.114,140.987,178.239,141.506,178.992,141.846z"
   id="path8" />
	<path
   fill-rule="evenodd"
   clip-rule="evenodd"
   fill="#FCFDFE"
   d="M66.767,164.039c6.392,0.088,12.173,0.721,17.446,3.408   c9.418,4.797,10.335,15.15,1.906,21.34c-4.479,3.287-9.723,4.934-15.278,5.816c-1.434,0.227-2.162,0.654-2.63,2.014   c-2.442,7.074-6.188,13.463-12.624,18.205c-7.112,5.24-15.238,6.959-24.121,5.115c-3.911-0.811-6.904-2.885-7.824-6.75   c-0.324-1.359-0.422-2.764,0.111-4.109c0.498-1.258,1.806-1.91,3.091-1.541c1.36,0.391,1.797,1.303,1.594,2.561   c-0.4,2.49-0.25,4.896,1.776,6.838c2.217,2.127,5.098,2.471,8.104,2.313c6.203-0.326,10.582-3.432,14.039-7.869   c3.965-5.088,6.455-10.875,9.227-16.527c2.819-5.75,5.603-11.521,10.14-16.385c1.456-1.559,3.119-2.902,4.965-4.055   c0.275-0.172,0.587-0.561,0.979-0.174c0.377,0.371-0.024,0.635-0.229,0.898c-3.931,5.068-5.776,10.936-7.674,16.785   c-0.308,0.949,0.073,1.098,1.024,0.963c8.945-1.264,16.682-9.777,13.144-19.303c-1.385-3.727-4.581-5.975-8.611-6.844   c-12.336-2.662-23.408-0.434-32.348,8.117c-4.532,4.338-6.148,9.76-4.838,15.715c1.071,4.865,5.662,7.311,10.632,5.844   c3.242-0.955,5.191-3.588,5.242-7.295c0.017-1.273,0.506-2.045,1.883-2.125c1.23-0.07,2.105,0.395,2.114,1.703   c0.02,3.016-1.321,5.389-4.033,7.072c-4.405,2.734-12.017,2.705-16.348-0.143c-3.937-2.588-5.046-6.336-4.574-10.529   c0.767-6.807,4.984-11.607,11.032-15.197C51.12,165.725,58.97,164.125,66.767,164.039z"
   id="path10" />
	<path
   fill-rule="evenodd"
   clip-rule="evenodd"
   fill="#FCFDFE"
   d="M146.782,133.491c0.157,0.779-0.239,1.171-0.461,1.604   c-1.221,2.377-2.495,4.731-3.682,7.124c-0.709,1.428-1.65,2.92,0.176,4.289c0.075,0.057,0.113,0.172,0.135,0.266   c0.215,0.934-2.214,4.586-3.238,4.898c-1.259,0.385-2.3,1.09-3.264,1.904c-2.01,1.695-3.603,3.699-5.1,5.777   c-0.238,0.33-0.353,0.951-1.015,0.746c-0.644-0.199-0.851-0.744-0.854-1.32c-0.003-0.51,0.279-0.947,0.562-1.375   c0.813-1.232,1.693-2.434,2.391-3.717c0.528-0.973,1.878-1.742,1.08-3.148c-0.097-0.17,0.314-0.594,0.51-0.889   c1.904-2.887,3.843-5.756,5.712-8.663C141.569,138.131,143.996,135.762,146.782,133.491z"
   id="path12" />
	<path
   fill-rule="evenodd"
   clip-rule="evenodd"
   fill="#456BB3"
   d="M212.232,133.444c-1.554-3.267-3.744-3.478-6.462-1.929   c-0.034-0.278-0.081-0.385-0.046-0.419c2.03-1.926,2.659-3.854-0.405-5.843c1.301-0.191,2.063,0.216,2.784,0.496   c1.106,0.433,1.808,0.235,2.396-0.711c0.392-0.629,0.929-1.183,1.436-1.813c0.152,0.162,0.282,0.242,0.271,0.298   c-0.577,2.817,0.687,4.38,3.991,4.563C213.36,128.934,210.914,129.778,212.232,133.444z"
   id="path14"
   style="fill:#ffffff" />
	<path
   fill-rule="evenodd"
   clip-rule="evenodd"
   fill="#456BB3"
   d="M145.222,85.207c-2.938-1.85-4.844-0.972-6.024,1.821   c-0.126-0.084-0.251-0.169-0.376-0.254c0-0.739-0.067-1.485,0.016-2.218c0.119-1.054-0.228-1.664-1.453-1.856   c-0.764-0.121-1.487-0.46-2.546-0.804c1.48-0.517,2.995-0.65,3.74-1.414c0.778-0.799,0.079-2.259,0.313-3.416   c0.198,0.021,0.367,0.002,0.388,0.045c1.282,2.636,3.348,3.048,6.259,1.361c-0.705,1.546-2.246,2.308-2.138,3.411   c0.098,0.989,1.193,1.896,1.849,2.84C145.239,84.884,145.229,85.045,145.222,85.207z"
   id="path16"
   style="fill:#ffffff" />
	<path
   fill-rule="evenodd"
   clip-rule="evenodd"
   fill="#456BB3"
   d="M109.343,102.813c2.502-2.182,2.934-4.198-0.048-6.445   c3.119,1.6,5.22,1.08,6.682-1.936c-0.815,3.328,0.852,4.731,4.176,5.164c-3.442,0.354-4.943,1.856-4.164,5.148   C114.539,101.604,112.347,101.244,109.343,102.813z"
   id="path18"
   style="fill:#ffffff" />
	<path
   fill-rule="evenodd"
   clip-rule="evenodd"
   fill="#456BB3"
   d="M111.925,144.977c-1.275,0.068-2.87-0.26-3.736,0.322   c-0.871,0.584-1.017,2.074-1.486,3.178c-0.071-0.041-0.171-0.066-0.205-0.125c-0.614-1.027-0.395-2.619-1.51-3.135   c-0.978-0.451-2.403-0.094-3.787-0.443c0.656-0.449,1.271-0.965,1.979-1.33c1.054-0.543,1.25-1.207,0.752-2.197   c-0.331-0.655-0.481-1.387-0.72-2.107c0.189-0.018,0.328-0.066,0.367-0.029c2.138,2.05,4.246,2.191,6.233-0.273   c0.14,0.287,0.235,0.394,0.208,0.441c-1.431,2.464-1.048,4.384,2.318,5.423C112.201,144.793,112.063,144.883,111.925,144.977z"
   id="path20"
   style="fill:#ffffff" />
	<path
   fill-rule="evenodd"
   clip-rule="evenodd"
   fill="#456BB3"
   d="M202.239,145.002c0.572-0.805,1.338-1.211,2.049-1.574   c1.093-0.557,1.151-1.227,0.721-2.17c-0.328-0.717-0.52-1.488-0.705-2.4c2.164,2.091,4.316,2.75,6.623-0.163   c0.182,1.213-0.233,1.914-0.547,2.573c-0.484,1.02-0.227,1.652,0.803,2.184c0.686,0.352,1.283,0.848,2.026,1.551   c-3.291-0.648-5.111,0.445-5.205,3.34c-0.611,0.123-0.53-0.17-0.585-0.309c-1.119-2.904-1.117-2.904-4.439-2.982   C202.782,145.047,202.586,145.025,202.239,145.002z"
   id="path22"
   style="fill:#ffffff" />
	<path
   fill-rule="evenodd"
   clip-rule="evenodd"
   fill="#456BB3"
   d="M162.832,78.079c-3.328,1.082-3.943,2.99-2.147,5.839   c-2.445-2.551-4.649-2.379-7.029,0.011c1.814-2.838,1.179-4.777-2.201-5.913c0.119-0.102,0.239-0.204,0.359-0.307   c0.725,0,1.463-0.082,2.17,0.018c1.47,0.206,2.195-0.32,2.407-1.656c0.099-0.621,0.442-1.21,0.685-1.836   c0.37,0.251,0.439,0.585,0.555,0.903c0.92,2.548,0.922,2.547,3.783,2.571c0.357,0.003,0.716,0,1.074,0   C162.603,77.833,162.718,77.956,162.832,78.079z"
   id="path24"
   style="fill:#ffffff" />
	<path
   fill-rule="evenodd"
   clip-rule="evenodd"
   fill="#456BB3"
   d="M175.639,77.105c-0.829,2.764,0.264,4.417,3.446,4.498   c0.1,0.462-0.12,0.501-0.322,0.567c-3.139,1.023-3.139,1.024-3.239,4.033c-0.006,0.179-0.031,0.358-0.046,0.521   c-0.453,0.056-0.549-0.214-0.696-0.393c-1.917-2.318-1.915-2.318-4.927-1.501c-0.248,0.067-0.508,0.1-0.783,0.151   c-0.094-0.5,0.314-0.736,0.542-1.031c1.595-2.076,1.601-2.071-0.044-4.188c-0.211-0.271-0.409-0.551-0.643-1.096   c2.944,1.724,4.874,0.774,6.275-1.653C175.214,76.994,175.381,77.049,175.639,77.105z"
   id="path26"
   style="fill:#ffffff" />
	<path
   fill-rule="evenodd"
   clip-rule="evenodd"
   fill="#456BB3"
   d="M103.195,117.57c1.745-2.918,0.977-4.773-2.124-5.847   c0.311-0.205,0.4-0.311,0.463-0.299c3.114,0.582,4.729-0.673,5.194-3.503c0.189,0.493,0.476,0.974,0.55,1.48   c0.253,1.722,1.295,2.311,3.101,2.011c0.509-0.084,1.049-0.013,1.733-0.013c-0.45,0.724-1.069,1.062-1.647,1.33   c-1.467,0.681-1.641,1.626-0.992,2.892c0.267,0.521,0.404,1.097,0.607,1.667c-0.187,0.027-0.325,0.084-0.364,0.049   C107.622,115.412,105.526,114.866,103.195,117.57z"
   id="path28"
   style="fill:#ffffff" />
	<path
   fill-rule="evenodd"
   clip-rule="evenodd"
   fill="#456BB3"
   d="M204.224,117.531c1.799-2.82,1.123-4.689-2.17-5.79   c0.088-0.114,0.178-0.227,0.268-0.341c0.865,0,1.742-0.081,2.593,0.02c1.155,0.139,1.662-0.3,1.887-1.288   c0.164-0.722,0.491-1.411,0.778-2.204c0.746,0.606,0.825,1.43,1.002,2.142c0.27,1.073,0.844,1.479,2.028,1.348   c0.788-0.087,1.599-0.017,2.933-0.017c-1.053,0.71-1.678,1.224-2.393,1.592c-1.055,0.541-1.227,1.205-0.762,2.199   c0.306,0.651,0.722,1.325,0.521,2.409C208.714,115.086,206.548,115.187,204.224,117.531z"
   id="path30"
   style="fill:#ffffff" />
	<path
   fill-rule="evenodd"
   clip-rule="evenodd"
   fill="#456BB3"
   d="M129.598,84.607c-1.835,2.616-1.341,4.516,2.168,5.62   c-1.318,0.451-2.216,0.315-3.062,0.273c-1.034-0.051-1.561,0.224-1.817,1.203c-0.207,0.792-0.379,1.646-0.972,2.358   c-0.658-2.606-1.789-4.578-5.546-3.305c0.049-0.145,0.098-0.29,0.147-0.436c0.487-0.346,0.925-0.788,1.471-1.019   c1.65-0.695,1.745-1.756,1.062-3.103c-0.245-0.482-0.374-1.014-0.557-1.524c0.143-0.038,0.26-0.107,0.317-0.078   c1.122,0.569,2.022,1.901,3.206,1.805c1.074-0.088,2.053-1.165,3.073-1.806C129.258,84.601,129.428,84.604,129.598,84.607z"
   id="path32"
   style="fill:#ffffff" />
	<path
   fill-rule="evenodd"
   clip-rule="evenodd"
   fill="#456BB3"
   d="M183.095,90.456c2.938-1.325,3.529-3.24,1.781-5.688   c0.512-0.241,0.699-0.008,0.893,0.115c2.626,1.669,2.623,1.67,5.201,0.045c0.217-0.137,0.461-0.239,1.012-0.415   c-1.734,2.638-1.268,4.595,1.888,5.639c-0.202,0.213-0.276,0.343-0.323,0.334c-3.099-0.529-4.797,0.624-4.861,3.605   c-0.283-0.102-0.396-0.109-0.421-0.156c-0.56-1.067-0.409-2.647-1.435-3.209C185.868,90.201,184.36,90.512,183.095,90.456z"
   id="path34"
   style="fill:#ffffff" />
	<path
   fill-rule="evenodd"
   clip-rule="evenodd"
   fill="#456BB3"
   d="M198.537,94.239c1.315,3.178,3.392,3.762,6.432,2.126   c-2.728,2.238-2.587,4.254-0.236,6.345c-1.229-0.313-2.524-1.006-3.669-0.839c-1.241,0.182-1.526,1.794-2.766,2.807   c0-0.804-0.088-1.414,0.017-1.997c0.261-1.464-0.405-2.184-1.964-2.408c-0.657-0.096-1.277-0.401-2.133-0.685   c1.423-0.48,2.908-0.619,3.753-1.366C198.883,97.416,198.065,95.955,198.537,94.239z"
   id="path36"
   style="fill:#ffffff" />
	<path
   fill-rule="evenodd"
   clip-rule="evenodd"
   fill="#456BB3"
   d="M102.267,133.307c0.687-3.246-0.728-4.752-4.008-4.832   c0.15-0.248,0.181-0.369,0.234-0.378c2.864-0.472,4.604-1.705,3.721-4.982c1.507,2.849,3.534,3.57,6.429,1.706   c0.02,0.153,0.039,0.306,0.058,0.458c-0.479,0.607-0.895,1.27-1.452,1.81c-0.834,0.809-0.761,1.488,0.027,2.276   c0.541,0.542,0.951,1.193,1.425,1.803c-0.122,0.08-0.223,0.18-0.257,0.163C105.833,130.094,103.688,130.261,102.267,133.307z"
   id="path38"
   style="fill:#ffffff" />
	
	
	
	<path
   fill-rule="evenodd"
   clip-rule="evenodd"
   fill="#4168B2"
   d="M111.927,191.609c-0.148,0.105-0.398,0.324-0.429,0.301   c-0.308-0.234-0.087-0.463,0.062-0.684C111.682,191.354,111.805,191.48,111.927,191.609z"
   id="path46" />
	<path
   fill-rule="evenodd"
   clip-rule="evenodd"
   fill="#4168B2"
   d="M210.173,208.424c0.157-0.096,0.433-0.295,0.456-0.273   c0.229,0.221,0.048,0.428-0.086,0.627C210.42,208.66,210.296,208.541,210.173,208.424z"
   id="path48" />
<path
   style="fill:#0c75bc;stroke-width:0.907773;fill-opacity:1"
   d="M 24.748759,131.83761 V 16.653234 H 136.53316 248.31756 V 131.83761 247.02199 H 136.53316 24.748759 Z m 41.360228,92.28546 c 2.906734,-1.72185 2.917233,-1.80131 0.614644,-4.65052 -1.556182,-1.92562 -2.073824,-2.07333 -4.036562,-1.15185 -1.238302,0.58137 -3.605234,1.05704 -5.259849,1.05704 -6.179594,0 -9.604283,-8.67157 -7.639891,-19.3448 1.427406,-7.75562 5.065112,-10.37879 11.403654,-8.22325 2.915122,0.99134 3.30728,0.90073 4.808589,-1.111 2.250971,-3.01625 2.120192,-3.47469 -1.426843,-5.00181 -7.857084,-3.38275 -16.869151,-0.27208 -21.491329,7.4181 -2.435782,4.05255 -2.682825,5.19148 -2.682825,12.36837 0,6.93513 0.297176,8.42568 2.422609,12.15109 1.332435,2.33545 3.438479,4.93215 4.6801,5.77044 4.993624,3.37145 13.569812,3.70247 18.607703,0.71819 z m 50.605883,1.15249 c 1.87187,-1.35099 2.17417,-1.35099 3.62293,0 2.20095,2.05242 3.39643,1.84801 5.12924,-0.87703 1.12562,-1.77017 1.24118,-2.6125 0.46775,-3.40945 -0.64145,-0.66096 -1.02721,-4.64946 -1.02721,-10.62053 0,-9.33998 -0.0607,-9.62464 -2.61404,-12.25562 -2.30568,-2.37581 -3.22871,-2.68832 -7.8249,-2.64928 -5.15374,0.0438 -11.01804,2.15295 -11.6588,4.19325 -0.17486,0.55679 0.42356,1.95591 1.32983,3.10914 1.60243,2.03911 1.72787,2.05411 4.56015,0.54493 3.91183,-2.08441 7.62648,-1.60084 7.99124,1.04031 0.23488,1.70077 -0.26084,2.11053 -3.12996,2.58714 -6.60007,1.09642 -7.60682,1.47665 -9.746,3.68089 -3.965003,4.0856 -2.40176,13.12337 2.63196,15.21651 3.11173,1.29394 8.07387,1.02318 10.26781,-0.56026 z m -6.55211,-6.78449 c -0.89619,-2.90952 1.03346,-5.56366 4.04498,-5.56366 2.41802,0 2.65136,0.27516 2.65136,3.12658 0,2.00097 -0.50925,3.32793 -1.41455,3.6859 -2.65586,1.05015 -4.7243,0.56109 -5.28179,-1.24882 z m 99.71637,5.94657 c 2.92756,-1.55995 3.24877,-2.8101 1.37607,-5.35577 -1.14707,-1.55927 -1.42682,-1.57558 -3.95138,-0.23037 -5.09262,2.7136 -9.95995,0.87455 -9.95995,-3.76322 0,-2.10678 0.20147,-2.16087 8.04848,-2.16087 h 8.04848 l -0.005,-2.99479 c -0.0152,-9.1243 -4.38731,-14.51323 -11.77479,-14.51323 -2.64756,0 -5.56133,0.6531 -7.10458,1.59245 -5.08129,3.09289 -7.72401,13.37245 -5.2015,20.23259 3.07173,8.35378 12.28572,11.58305 20.52417,7.19321 z m -12.53526,-19.31035 c 0,-2.10338 2.15994,-4.17905 4.34871,-4.17905 1.4912,0 3.69977,2.78966 3.69977,4.67319 0,1.49192 -0.64586,1.77713 -4.02424,1.77713 -3.68102,0 -4.02424,-0.19371 -4.02424,-2.27127 z m 32.90814,20.21914 c 0.75888,-0.63183 -1.07864,-5.04722 -2.10046,-5.04722 -0.94448,0 -1.24967,-3.81569 -1.46804,-18.35483 -0.15163,-10.09515 -0.53689,-18.62301 -0.85613,-18.9508 -0.31924,-0.32778 -2.1736,-0.15393 -4.1208,0.38634 l -3.54035,0.98232 0.36791,17.73812 c 0.20236,9.75596 0.56165,18.69721 0.79843,19.86942 0.52055,2.5771 5.23089,4.88898 8.41666,4.13098 1.22963,-0.29258 2.35588,-0.63203 2.50278,-0.75433 z M 80.193821,215.28335 c 0,-9.85201 0.130564,-10.63895 1.987535,-11.97918 2.561956,-1.84904 5.719436,-1.83766 6.412401,0.0231 0.298553,0.80166 0.542816,6.21613 0.542816,12.03215 V 225.934 l 3.800669,-0.28335 3.80067,-0.28335 -0.02692,-12.43992 c -0.03067,-14.18195 -0.619294,-16.02185 -5.619929,-17.56565 -2.75545,-0.85066 -4.015421,-0.77133 -6.801687,0.42825 -1.880867,0.80978 -3.571816,1.47233 -3.757673,1.47233 -0.185866,0 -0.337929,-3.31731 -0.337929,-7.3718 0,-4.05449 -0.301818,-7.36949 -0.670706,-7.36666 -0.368889,0.003 -2.179796,0.43698 -4.024239,0.96478 l -3.353532,0.95966 v 20.07555 c 0,11.04156 0.268283,20.35201 0.596187,20.68987 0.327895,0.33788 2.138802,0.61432 4.024238,0.61432 h 3.428052 z m 59.022159,-0.40119 v -10.94591 l 2.62885,-1.12202 c 1.44587,-0.61712 3.05557,-0.85029 3.5771,-0.51815 0.58594,0.37314 0.94826,4.98417 0.94826,12.06793 v 11.46405 h 4.09021 4.09021 l -0.28955,-13.44492 c -0.27658,-12.84316 -0.38402,-13.52366 -2.40072,-15.20433 -2.47121,-2.05945 -7.61546,-2.2673 -10.82303,-0.43729 -1.88785,1.07708 -2.34156,1.06143 -3.17243,-0.10942 -0.72243,-1.01802 -1.83598,-1.19874 -4.36914,-0.70906 -3.20697,0.61992 -3.36927,0.81357 -2.86393,3.4171 0.29464,1.51797 0.5357,8.09874 0.5357,14.62393 v 11.86399 h 4.02424 4.02423 z m 29.31477,-0.20705 c 0.24613,-10.49258 0.29391,-10.71244 2.55934,-11.77604 4.13755,-1.94253 4.79118,-0.3004 4.79118,12.0371 v 10.99786 l 3.80067,-0.28335 3.80067,-0.28335 0.27493,-9.21475 c 0.50167,-16.81422 -1.034,-20.73319 -8.12442,-20.73319 -2.1039,0 -4.69611,0.62852 -5.76049,1.39671 -1.74425,1.25888 -2.01681,1.24647 -2.76206,-0.1257 -0.65024,-1.19728 -1.54502,-1.38358 -4.18963,-0.87235 l -3.36281,0.65004 0.56023,4.21164 c 0.30812,2.31639 0.56023,8.94623 0.56023,14.73297 v 10.52133 l 3.80067,-0.28335 3.80067,-0.28335 z m -30.89674,-48.01683 c -0.56445,-1.15956 -1.14366,-6.39515 -1.28713,-11.63463 -0.25044,-9.14576 -0.3611,-9.61512 -2.76998,-11.74881 -3.18463,-2.82081 -10.05289,-2.99883 -15.59995,-0.40434 -4.16297,1.94711 -4.47653,2.71269 -2.42951,5.93186 l 1.37116,2.1563 3.28931,-1.72798 c 1.80911,-0.9504 3.92856,-1.72799 4.7099,-1.72799 1.88993,0 3.56687,1.81955 3.56687,3.87019 0,1.31621 -0.72651,1.65866 -3.51888,1.65866 -7.58139,0 -11.69946,3.56132 -11.65536,10.07961 0.0304,4.49394 1.04227,6.48803 4.16058,8.19937 2.74455,1.50622 8.90043,1.33369 11.34682,-0.31801 1.88693,-1.27396 2.19704,-1.23258 3.71495,0.49571 l 1.65617,1.8857 2.23566,-2.30366 c 1.91534,-1.97361 2.08863,-2.60574 1.20939,-4.41198 z m -14.73855,-0.7999 c -3.60363,-2.16277 -0.97066,-7.29799 3.74188,-7.29799 1.51149,0 1.84734,0.58044 1.84734,3.19274 0,2.21348 -0.53054,3.48532 -1.72976,4.14664 -2.05865,1.13527 -1.89599,1.13701 -3.85946,-0.0414 z m -65.495864,4.45081 c 0.270053,-1.14032 1.408769,-6.98383 2.530486,-12.98557 l 2.039466,-10.91226 2.462252,12.29447 c 1.354237,6.76196 2.784264,12.63206 3.177843,13.04468 0.393579,0.41261 2.4665,0.61994 4.606483,0.46074 l 3.890884,-0.28947 4.685036,-19.81172 c 2.576783,-10.89644 4.703584,-20.12271 4.726236,-20.50281 0.02262,-0.38011 -1.903751,-0.69111 -4.280905,-0.69111 h -4.322103 l -1.923407,9.44512 c -1.057874,5.19481 -2.209003,11.3111 -2.558065,13.59175 l -0.634659,4.14664 -1.112791,-6.70604 c -0.612024,-3.68833 -1.781799,-9.80462 -2.599488,-13.59176 l -1.486706,-6.88571 h -4.339577 c -5.013155,0 -4.779848,-0.46062 -7.710396,15.22242 -0.897468,4.80285 -1.854235,8.73324 -2.126149,8.73419 -0.271913,9.2e-4 -1.410951,-4.90007 -2.531201,-10.89116 -1.12024,-5.99109 -2.345183,-11.40704 -2.722093,-12.03543 -0.426006,-0.71026 -2.191573,-1.03409 -4.666587,-0.85591 l -3.981304,0.28663 4.135808,17.96876 c 2.274696,9.88282 4.414705,19.10909 4.755567,20.50282 0.571854,2.33815 0.962804,2.53405 5.057064,2.53405 3.859978,0 4.501182,-0.26975 4.928306,-2.07332 z m 48.448534,0.14684 3.86211,-1.92648 -1.50217,-2.62032 c -1.43266,-2.49908 -1.61693,-2.55917 -3.9825,-1.29869 -4.872654,2.5964 -10.617621,0.74128 -10.617621,-3.42855 0,-1.52659 0.821553,-1.70013 8.048481,-1.70013 h 8.04847 v -4.17623 c 0,-8.65438 -4.7388,-14.24637 -12.072713,-14.24637 -8.025404,0 -13.654071,7.61079 -12.696803,17.16795 0.607875,6.0689 2.633256,9.70224 6.794775,12.18917 4.122215,2.46344 9.230121,2.47778 14.117971,0.0396 z M 93.607949,151.24084 c 0,-0.98489 0.851046,-2.40492 1.891213,-3.15565 2.868271,-2.07011 6.112628,-0.30959 6.143578,3.33377 0.011,1.29898 -0.76891,1.61258 -4.010553,1.61258 -3.388909,0 -4.024238,-0.28271 -4.024238,-1.7907 z m 61.529541,20.54791 c 1.59104,-0.4391 1.99837,-1.11826 1.78855,-2.9822 -0.22267,-1.97822 -0.79598,-2.46572 -3.17808,-2.70238 l -2.9064,-0.28875 v -9.15637 -9.15636 h 2.25782 c 1.60077,0 2.51163,-0.68785 3.12997,-2.36368 1.34643,-3.64908 1.10468,-4.08665 -2.25782,-4.08665 -3.11341,0 -3.12997,-0.0219 -3.12997,-4.14663 0,-4.57496 0.0569,-4.53649 -4.69494,-3.17672 -3.04793,0.8722 -3.35353,1.24962 -3.35353,4.1415 0,2.214 -0.40804,3.18185 -1.34142,3.18185 -0.93686,0 -1.34141,0.97268 -1.34141,3.22517 0,2.25249 0.40455,3.22516 1.34141,3.22516 1.10964,0 1.34142,1.72099 1.34142,9.9601 0,6.58376 0.37893,10.44953 1.11784,11.40388 2.43757,3.14829 6.53892,4.2158 11.22656,2.92208 z m 54.44656,-1.33272 3.86211,-1.92648 -1.50216,-2.62032 c -1.43267,-2.49908 -1.61693,-2.55917 -3.98251,-1.29869 -4.87265,2.5964 -10.61762,0.74128 -10.61762,-3.42855 0,-1.52659 0.82155,-1.70013 8.04848,-1.70013 h 8.04848 v -4.17623 c 0,-9.44119 -4.89729,-14.62998 -13.21035,-13.99669 -5.72334,0.436 -9.55753,3.69025 -11.04577,9.37502 -1.21809,4.65284 -0.47489,11.62866 1.63565,15.35231 3.40055,5.99968 11.68453,7.95096 18.76369,4.41976 z m -12.24018,-19.21519 c 0,-0.98489 0.88679,-2.43073 1.97064,-3.21298 1.67651,-1.20998 2.24379,-1.2364 3.80067,-0.17701 1.00652,0.68489 1.95863,2.13073 2.1158,3.21297 0.25635,1.76519 -0.13483,1.96772 -3.80067,1.96772 -3.45051,0 -4.08644,-0.27867 -4.08644,-1.7907 z m -28.6168,9.67548 c 0,-9.852 0.13056,-10.63894 1.98753,-11.97917 5.30976,-3.83221 6.95522,-0.77836 6.95522,12.90839 v 9.6155 h 3.5771 3.5771 v -12.94253 c 0,-12.64154 -0.0529,-12.99714 -2.27846,-15.2903 -1.9451,-2.00426 -2.89372,-2.29169 -6.4835,-1.96452 -2.31276,0.21079 -4.89169,0.70155 -5.73094,1.09058 -1.35609,0.6286 -1.55515,-0.0967 -1.78855,-6.51725 -0.28508,-7.84179 -0.0296,-7.56853 -5.85186,-6.2596 l -2.01212,0.45235 v 20.71564 20.71563 h 4.02424 4.02424 z m 57.23361,0.47431 c 0,-10.97631 0.76812,-12.96647 5.00452,-12.96647 2.15109,0 3.93823,-2.74525 3.93823,-6.04957 0,-1.75874 -4.48987,-1.73836 -6.75971,0.0307 -2.26636,1.76632 -3.07732,1.74703 -3.07732,-0.0733 0,-1.21617 -0.60667,-1.368 -3.35353,-0.8393 -1.84444,0.35501 -3.42353,0.71517 -3.50908,0.80036 -0.0856,0.0851 0.0756,6.68283 0.35829,14.66142 l 0.51383,14.50654 h 3.44239 3.44238 z M 120.38295,117.32295 c 3.63302,-1.90246 4.09089,-2.91363 2.39897,-5.29784 -1.08687,-1.53158 -1.57463,-1.61941 -3.63124,-0.65385 -3.08726,1.44943 -8.08848,1.42967 -9.22683,-0.0365 -0.49188,-0.63352 -1.1719,-2.08484 -1.51117,-3.22517 -0.61032,-2.05134 -0.52496,-2.07329 8.06414,-2.07329 h 8.68099 l -0.50467,-5.03841 c -0.61967,-6.186649 -2.78588,-10.154212 -6.54848,-11.99399 -6.28599,-3.073627 -13.51715,-0.474005 -16.67042,5.993066 -2.042987,4.190014 -2.042987,12.359794 0,16.549824 3.31286,6.79438 11.96671,9.43235 18.94871,5.77615 z M 108.53038,97.973402 c 1.59347,-4.605906 5.99205,-5.521768 7.45658,-1.552593 0.47968,1.30002 0.87214,2.544012 0.87214,2.764425 0,0.220412 -1.99949,0.400749 -4.4433,0.400749 -3.84807,0 -4.36858,-0.216026 -3.88542,-1.612581 z M 56.942666,101.42894 V 84.842383 h 4.375697 c 4.641566,0 5.46133,-0.772056 5.46133,-5.143477 V 77.470583 H 52.918428 39.057162 v 3.6859 3.6859 h 4.471376 4.471376 v 16.586557 16.58655 h 4.471376 4.471376 z m 22.35688,5.61898 V 96.08037 l 2.815214,-1.011237 c 4.698227,-1.687627 5.233262,-0.46063 5.233262,12.001477 v 10.94488 h 4.091828 4.091837 L 95.24052,105.03282 C 94.950658,92.107923 94.938192,92.040263 92.44024,89.828479 89.565691,87.283255 85.01307,86.900306 81.267255,88.888651 l -2.414847,1.281843 -0.161765,-6.900586 c -0.08898,-3.795323 -0.363666,-7.108635 -0.610442,-7.362917 -0.246775,-0.254281 -2.085494,-0.177382 -4.08605,0.170889 l -3.637357,0.63322 v 20.652192 20.652198 h 4.471376 4.471376 z"
   id="path318" /></g>
</svg>
