<?xml version="1.0" encoding="UTF-8" standalone="no"?>
<!-- Generator: Adobe Illustrator 16.0.0, SVG Export Plug-In . SVG Version: 6.00 Build 0)  -->

<svg
   version="1.1"
   id="Layer_1"
   x="0px"
   y="0px"
   width="280px"
   height="280px"
   viewBox="0 0 280 280"
   enable-background="new 0 0 280 280"
   xml:space="preserve"
   sodipodi:docname="ttvcultura.svg"
   inkscape:version="1.2.2 (b0a8486541, 2022-12-01)"
   xmlns:inkscape="http://www.inkscape.org/namespaces/inkscape"
   xmlns:sodipodi="http://sodipodi.sourceforge.net/DTD/sodipodi-0.dtd"
   xmlns="http://www.w3.org/2000/svg"
   xmlns:svg="http://www.w3.org/2000/svg"><defs
   id="defs5011" /><sodipodi:namedview
   id="namedview5009"
   pagecolor="#ffffff"
   bordercolor="#000000"
   borderopacity="0.25"
   inkscape:showpageshadow="2"
   inkscape:pageopacity="0.0"
   inkscape:pagecheckerboard="0"
   inkscape:deskcolor="#d1d1d1"
   showgrid="false"
   inkscape:zoom="0.73839285"
   inkscape:cx="403.57921"
   inkscape:cy="349.4075"
   inkscape:window-width="1600"
   inkscape:window-height="826"
   inkscape:window-x="0"
   inkscape:window-y="0"
   inkscape:window-maximized="1"
   inkscape:current-layer="Layer_1"
   inkscape:pageshadow="2"
   showguides="false" />


<g
   transform="matrix(0.46256312,0,0,0.48278209,-381.27411,-73.93223)"
   id="g217"><g
     transform="matrix(1.2562813,0,0,1.2562813,-224.97151,-171.41723)"
     id="g215"><path
       style="fill:#27ba59;fill-opacity:1"
       d="m 1028.2988,323.73047 v 99.96484 h 97.6953 v -99.96484 z m 103.8184,109.80664 c -0.9803,-0.007 -1.953,0.009 -2.9024,0.0606 -28.4814,1.57741 -49.6581,21.07891 -47.7714,56.35937 v 92.31055 h 48.9414 v -99.50196 l 101.9765,-0.38867 v -48.77929 h -97.2968 c -0.9792,-0.0281 -1.9671,-0.0543 -2.9473,-0.0606 z m -109.5391,0.0391 c -0.9649,-0.0125 -1.9386,-0.005 -2.9179,0.0215 H 922.36133 V 482.377 l 101.97847,0.38867 v 99.50196 h 48.9414 v -92.31055 c 1.9496,-36.45653 -20.7905,-55.99405 -50.7031,-56.38086 z"
       id="path211" /><path
       style="fill:#39409e;fill-opacity:1"
       d="m 909.20703,606.38281 -0.39062,0.0781 c -9.17136,0.22611 -16.62625,3.50764 -22.28516,9.27734 -5.61989,5.84763 -8.5841,13.13854 -8.70117,21.83203 v 0.14453 0.14063 c 0.17576,8.73251 3.12033,16.21665 8.70117,21.98633 5.65891,5.80866 12.99636,8.77196 21.85547,9.00586 h 0.14453 c 5.46375,-0.0318 10.10905,-1.1699 14.01172,-3.11914 3.90271,-1.94921 7.25862,-4.4441 10.30273,-7.71875 l 0.78125,-1.16993 -0.78125,-0.77929 -6.55664,-6.54883 -0.78125,-1.16992 -1.16992,1.16992 c -2.34159,2.3391 -4.72293,3.89704 -7.14258,5.14453 -2.34163,1.16952 -5.11237,1.95117 -8.42969,1.95117 -5.30763,-0.14438 -9.32715,-1.95065 -12.5664,-5.57617 -3.12216,-3.50858 -5.03527,-7.95234 -5.15234,-13.41016 0,-0.0467 0.003,-0.0901 0,-0.14062 0.003,-0.0506 0,-0.0937 0,-0.14453 0.1248,-5.41883 1.95197,-9.90157 4.99609,-13.41016 3.12214,-3.50862 7.41502,-5.30103 12.72265,-5.41797 3.12217,0.0318 5.73654,0.77974 8.15626,1.94922 2.34158,1.16955 4.8008,2.72889 6.98632,4.87305 l 1.17188,1.16797 1.16992,-1.16797 6.55664,-7.56446 0.78125,-1.16796 -0.78125,-0.78125 c -2.73191,-2.72893 -6.01118,-5.02876 -9.71875,-6.70508 -3.90266,-1.55938 -8.35062,-2.72852 -13.73633,-2.72852 h -0.14453 z m 329.14067,0.76367 -0.2852,0.7793 -25.4453,57.95899 -0.7813,1.94921 h 1.9512 10.4219 0.7793 l 0.289,-0.77929 5.6973,-13.13867 h 25.291 l 5.5801,13.13867 0.2852,0.77929 h 1.1699 10.5762 1.9531 l -0.7813,-1.94921 -25.289,-57.95899 -0.3907,-0.7793 h -0.7812 -9.4434 -0.7812 -0.016 z m -233.92,0.19922 0.1328,0.11719 v 1.55859 57.5293 1.56055 h 1.5625 40.2989 1.5605 v -1.56055 -9.12109 -1.56055 h -1.5605 -28.8809 v -46.96484 -1.5586 h -1.5605 -9.9903 z m -63.66598,0.0391 -0.0781,0.0781 v 1.55859 33.13672 c 0.0859,8.57655 2.34225,15.39988 7.14258,20 4.6442,4.52218 11.04423,6.70508 18.84961,6.70508 7.88345,-0.003 14.32261,-2.33915 19.00586,-6.86133 4.72225,-4.63911 7.06453,-11.46103 7.14258,-20.27148 v -32.70899 -1.55859 h -1.56055 -10.14844 -1.16992 v 1.55859 33.13672 c -0.0429,5.10695 -1.17207,8.77233 -3.51367,11.15039 -2.34161,2.33907 -5.3066,3.50782 -9.56055,3.50782 -4.29297,-0.0222 -7.45519,-1.55937 -9.71875,-3.89844 -2.34163,-2.33903 -3.51172,-6.11971 -3.51172,-11.26563 v -32.70898 -1.55859 h -1.16992 -10.14843 -1.56055 z m 154.00978,0 -0.078,0.0781 v 1.55859 33.13672 c 0.09,8.57655 2.3403,15.39988 7.1406,20 4.6442,4.52218 11.0443,6.70508 18.8496,6.70508 7.8835,-0.003 14.3245,-2.33915 19.0078,-6.86133 4.7222,-4.63911 7.0626,-11.46103 7.1406,-20.27148 v -32.70899 -1.55859 h -1.5605 -10.1465 -1.1719 v 1.55859 33.13672 c -0.043,5.10695 -1.1701,8.77233 -3.5117,11.15039 -2.3416,2.33907 -5.3086,3.50782 -9.5625,3.50782 -4.293,-0.0222 -7.4533,-1.55937 -9.7168,-3.89844 -2.3416,-2.33903 -3.5117,-6.11971 -3.5117,-11.26563 v -32.70898 -1.55859 h -1.1719 -10.1465 -1.5605 z m 61.8359,0.0508 v 1.55859 57.52539 1.56055 h 1.5625 9.9903 1.5605 v -1.56055 -18.71289 h 10.5762 l 13.7383,19.57031 0.3906,0.39063 h 0.7793 12.0215 2.7304 l -1.5605,-1.94922 -14.5957,-20.70117 c 3.5124,-1.16952 6.5958,-2.72806 8.8594,-5.41797 2.7319,-3.11876 4.2149,-7.33025 4.2929,-12.28125 v -0.13867 -0.14453 c -0.01,-2.72892 -0.3917,-5.14712 -1.5625,-7.40821 -0.7806,-2.33907 -2.3412,-4.17129 -3.9023,-5.84765 v -0.14453 c -1.9513,-1.94926 -4.4871,-3.50764 -7.4141,-4.4043 -3.1222,-1.16952 -6.3999,-1.56055 -10.1465,-1.56055 h -25.5644 -1.5606 z m -118.9316,0.0273 v 1.55859 9.43555 1.16797 h 1.1719 16.8593 v 46.82422 1.56055 h 1.5606 10.3027 1.1719 v -1.56055 -46.82422 h 16.8594 1.5605 v -1.16797 -9.43555 -1.55859 h -1.5605 -46.7305 -1.1719 -0.023 z m 131.7715,11.94141 h 13.3086 c 3.5124,0.0191 6.2438,0.77854 8,2.33789 1.5611,1.16951 2.7324,3.11908 2.7324,6.0039 v 0.14063 c -0.035,2.7289 -0.7811,4.52249 -2.7324,6.0039 -1.9514,1.55939 -4.2531,2.3379 -7.7266,2.3379 h -13.4258 v -16.56836 z m 74.3261,4.74023 7.8438,17.9707 h -15.5723 z"
       id="path213" /></g></g></svg>
